<?xml version="1.0" encoding="iso-8859-1"?>
<svg version="1.1" id="Layer_1" xmlns="http://www.w3.org/2000/svg" xmlns:xlink="http://www.w3.org/1999/xlink" x="0px" y="0px"
	 viewBox="0 0 512 512" style="enable-background:new 0 0 512 512;" xml:space="preserve">
<g>
	<path style="fill:#F3B41B;" d="M48.254,451.913L241.993,73.885c5.85-11.414,22.164-11.414,28.013,0l193.74,378.028
		c5.368,10.474-2.238,22.917-14.007,22.917H62.26C50.492,474.83,42.886,462.385,48.254,451.913z"/>
	<path style="fill:#F3B41B;" d="M508.511,495.011c-4.323,7.073-11.854,11.296-20.144,11.296H23.633
		c-8.29,0-15.821-4.222-20.144-11.296c-4.323-7.074-4.648-15.702-0.867-23.08l232.368-453.4c4.059-7.92,12.11-12.84,21.009-12.84
		c8.9,0,16.951,4.92,21.009,12.841l232.368,453.398C513.159,479.31,512.834,487.937,508.511,495.011z"/>
</g>
<g>
	<path style="fill:#F7D04A;" d="M68.133,447.632L248.997,94.727c2.925-5.707,11.081-5.707,14.007,0l180.865,352.904
		c2.684,5.237-1.119,11.459-7.003,11.459H75.136C69.252,459.091,65.449,452.869,68.133,447.632z"/>
	<path style="fill:#F7D04A;" d="M508.511,495.011c-4.323,7.073-11.854,11.296-20.144,11.296H23.633
		c-8.29,0-15.821-4.222-20.144-11.296c-4.323-7.074-4.648-15.702-0.867-23.08l232.368-453.4c4.059-7.92,12.11-12.84,21.009-12.84
		c8.9,0,16.951,4.92,21.009,12.841l232.368,453.398C513.159,479.31,512.834,487.937,508.511,495.011z M62.26,474.83h387.481
		c11.769,0,19.375-12.444,14.007-22.917L270.006,73.885c-5.85-11.414-22.164-11.414-28.013,0L48.254,451.913
		C42.886,462.385,50.492,474.83,62.26,474.83z"/>
</g>
<path style="fill:#C74B38;" d="M269.64,391.938h-27.281c-4.347,0-7.869,3.522-7.869,7.869v27.281c0,4.347,3.522,7.869,7.869,7.869
	h27.281c4.347,0,7.87-3.522,7.87-7.869v-27.281C277.51,395.46,273.987,391.938,269.64,391.938z"/>
<g>
	<polygon style="fill:#666666;" points="301.529,135.393 336.901,135.393 311.089,85.028 275.717,85.028 	"/>
	<polygon style="fill:#666666;" points="236.282,85.028 200.911,85.028 175.099,135.393 210.47,135.393 	"/>
	<polygon style="fill:#666666;" points="183.583,187.856 148.212,187.856 122.399,238.221 157.771,238.221 	"/>
	<polygon style="fill:#666666;" points="354.23,238.221 389.6,238.221 363.788,187.856 328.417,187.856 	"/>
	<polygon style="fill:#666666;" points="406.929,341.049 442.301,341.049 416.489,290.684 381.117,290.684 	"/>
	<polygon style="fill:#666666;" points="130.883,290.684 95.512,290.684 69.7,341.049 105.071,341.049 	"/>
	<polygon style="fill:#666666;" points="78.184,393.512 42.812,393.512 17,443.876 52.372,443.876 	"/>
	<polygon style="fill:#666666;" points="459.628,443.876 495,443.876 469.188,393.512 433.816,393.512 	"/>
	<polygon style="fill:#666666;" points="461.368,447.271 464.762,443.876 459.628,443.876 	"/>
	<polygon style="fill:#666666;" points="374.453,474.83 342.975,506.308 402.331,506.308 433.809,474.83 	"/>
	<polygon style="fill:#666666;" points="229.655,474.83 198.177,506.308 257.533,506.308 289.011,474.83 	"/>
	<polygon style="fill:#666666;" points="84.856,474.83 53.378,506.308 112.734,506.308 144.212,474.83 	"/>
</g>
<path style="fill:#C74B38;" d="M278.034,216.754v44.392c0,4.346-3.523,7.869-7.869,7.869h-28.33c-4.346,0-7.869-3.523-7.869-7.869
	v-44.392c0-6.658-7.804-10.369-12.887-6.069c-11.88,10.05-19.115,24.993-19.115,41.24c0,21.859,12.851,41.114,32.527,49.592v66.653
	c0,4.346,3.523,7.869,7.869,7.869h27.281c4.346,0,7.87-3.523,7.87-7.869v-66.653c19.676-8.478,32.527-27.733,32.527-49.592
	c0-16.247-7.236-31.189-19.116-41.24C285.839,206.385,278.034,210.096,278.034,216.754z"/>
<g>
</g>
<g>
</g>
<g>
</g>
<g>
</g>
<g>
</g>
<g>
</g>
<g>
</g>
<g>
</g>
<g>
</g>
<g>
</g>
<g>
</g>
<g>
</g>
<g>
</g>
<g>
</g>
<g>
</g>
</svg>
